<?xml version="1.0" encoding="UTF-8"?>
<svg width="167px" height="40px" viewBox="0 0 167 40" version="1.1" xmlns="http://www.w3.org/2000/svg" xmlns:xlink="http://www.w3.org/1999/xlink">
    <!-- Generator: Sketch 57.1 (83088) - https://sketch.com -->
    <title>Group 35</title>
    <desc>Created with Sketch.</desc>
    <g id="Symbols" stroke="none" stroke-width="1" fill="none" fill-rule="evenodd">
        <g id="Header/header-site-logo" transform="translate(-50.000000, -18.000000)">
            <g id="Group-36" transform="translate(50.000000, 18.000000)">
                <g id="Group-35">
                    <path d="M28.1378725,30.3022456 L26.2803513,30.3022456 L26.2803513,31.9759298 L28.1378725,31.9759298 C28.7152962,31.9759298 29.0889233,31.684 29.0889233,31.1450526 C29.0889233,30.5941754 28.7152962,30.3022456 28.1378725,30.3022456 L28.1378725,30.3022456 Z M26.2803513,33.4362807 L26.2803513,36.6713684 L24.7624911,36.6713684 L24.7624911,28.8082105 L28.1039064,28.8082105 C29.7123428,28.8082105 30.6067835,29.7071579 30.6067835,31.1218947 C30.6067835,32.2903158 30.0067157,33.0994386 28.8964487,33.3576842 L30.8671903,36.6713684 L29.123597,36.6713684 L27.2094657,33.4362807 L26.2803513,33.4362807 Z" id="Fill-2" fill="#00AFA9"></path>
                    <polygon id="Clip-5" points="0 40 166.906593 40 166.906593 0.574035088 0 0.574035088"></polygon>
                    <polygon id="Fill-4" fill="#00AFA9" points="31.7590127 36.6708772 33.2768729 36.6708772 33.2768729 28.8077193 31.7590127 28.8077193"></polygon>
                    <polygon id="Fill-4-Copy" fill="#00AFA9" points="21.7590127 36.6708772 23.2768729 36.6708772 23.2768729 28.8077193 21.7590127 28.8077193"></polygon>
                    <path d="M34.2494356,34.1886316 L35.8125839,34.1886316 C35.9031602,34.8510877 36.4239737,35.2896842 37.1832576,35.2896842 C37.8512576,35.2896842 38.3161686,35.0426667 38.3161686,34.5030175 C38.3161686,34.0651228 38.0550542,33.8181053 37.5002746,33.6721404 L36.1635669,33.3121404 C34.9521093,32.9872281 34.3513339,32.1444211 34.3513339,30.9872281 C34.3513339,29.4145965 35.5974653,28.696 36.979461,28.696 C38.5652534,28.696 39.5502703,29.6167018 39.7201008,30.9535439 L38.1569525,30.9535439 C38.0217958,30.4258246 37.4663085,30.1900351 36.9568169,30.1900351 C36.3220754,30.1900351 35.8691941,30.4370526 35.8691941,30.9872281 C35.8691941,31.4482807 36.2314992,31.650386 36.6624441,31.7626667 L37.9531559,32.1107368 C39.1766432,32.4363509 39.8340288,33.1781053 39.8340288,34.5030175 C39.8340288,35.9184561 38.9049144,36.7837193 37.1832576,36.7837193 C35.4502788,36.7837193 34.3286898,35.7500351 34.2494356,34.1886316" id="Fill-6" fill="#00AFA9"></path>
                    <path d="M47.713386,31.7174035 C47.713386,30.8079298 47.0673225,30.3019649 46.240814,30.3019649 L44.7682419,30.3019649 L44.7682419,35.1770526 L46.240814,35.1770526 C47.0673225,35.1770526 47.713386,34.6717895 47.713386,33.7623158 L47.713386,31.7174035 Z M43.2503818,36.6710877 L43.2503818,28.8079298 L46.240814,28.8079298 C48.1436233,28.8079298 49.2312462,29.9763509 49.2312462,31.7174035 L49.2312462,33.7623158 C49.2312462,35.5033684 48.1436233,36.6710877 46.240814,36.6710877 L43.2503818,36.6710877 Z" id="Fill-7" fill="#00AFA9"></path>
                    <path d="M51.6857924,34.8965614 C51.6857924,35.1772632 51.900911,35.4804211 52.5696186,35.4804211 C53.3395169,35.4804211 53.9509068,35.0537544 53.9509068,34.3239298 L53.9509068,34.1323509 C53.1017542,34.1884912 52.2865678,34.2558596 52.0028093,34.4018246 C51.7537246,34.5260351 51.6857924,34.6488421 51.6857924,34.8965614 L51.6857924,34.8965614 Z M53.9282627,32.8972632 C53.8263644,32.3807719 53.4527373,32.0544561 52.8413475,32.0544561 C52.3198263,32.0544561 51.9575212,32.3014737 51.8103347,32.6944561 L50.3037966,32.6944561 C50.5415593,31.4818246 51.4140636,30.717614 52.8413475,30.717614 C54.5170085,30.717614 55.4461229,31.7737544 55.4461229,33.3800702 L55.4461229,36.6712982 L53.9509068,36.6712982 L53.9509068,36.0081404 C53.679178,36.4460351 53.2149746,36.7835789 52.3198263,36.7835789 C50.9838263,36.7835789 50.1905763,36.1316491 50.1905763,35.0649825 C50.1905763,34.2228772 50.4849492,33.7169123 51.3008432,33.3351579 C51.8782669,33.0656842 53.0451441,32.9758596 53.9282627,32.9084912 L53.9282627,32.8972632 Z" id="Fill-8" fill="#00AFA9"></path>
                    <path d="M59.9292237,35.3344561 L59.9292237,36.6712982 L58.4906178,36.6712982 C57.4489907,36.6712982 56.9954017,36.1211228 56.9954017,35.1884912 L56.9954017,32.2116491 L56.1688932,32.2116491 L56.1688932,30.8755088 L56.9954017,30.8755088 L56.9954017,29.5604211 L58.4906178,29.5604211 L58.4906178,30.8755088 L59.9292237,30.8755088 L59.9292237,32.2116491 L58.4906178,32.2116491 L58.4906178,34.8741053 C58.4906178,35.1435789 58.55855,35.3344561 58.9208551,35.3344561 L59.9292237,35.3344561 Z" id="Fill-9" fill="#00AFA9"></path>
                    <path d="M62.169925,34.8965614 C62.169925,35.1772632 62.3850436,35.4804211 63.0537513,35.4804211 C63.8236496,35.4804211 64.4350394,35.0537544 64.4350394,34.3239298 L64.4350394,34.1323509 C63.5858869,34.1884912 62.7707004,34.2558596 62.4869419,34.4018246 C62.2378572,34.5260351 62.169925,34.6488421 62.169925,34.8965614 L62.169925,34.8965614 Z M64.4123953,32.8972632 C64.310497,32.3807719 63.9368699,32.0544561 63.3254801,32.0544561 C62.8039589,32.0544561 62.4416538,32.3014737 62.2944674,32.6944561 L60.7879292,32.6944561 C61.0256919,31.4818246 61.8981962,30.717614 63.3254801,30.717614 C65.0011411,30.717614 65.9302555,31.7737544 65.9302555,33.3800702 L65.9302555,36.6712982 L64.4350394,36.6712982 L64.4350394,36.0081404 C64.1633106,36.4460351 63.6991072,36.7835789 62.8039589,36.7835789 C61.4679589,36.7835789 60.6747089,36.1316491 60.6747089,35.0649825 C60.6747089,34.2228772 60.9690818,33.7169123 61.7849758,33.3351579 C62.3623996,33.0656842 63.5292767,32.9758596 64.4123953,32.9084912 L64.4123953,32.8972632 Z" id="Fill-10" fill="#00AFA9"></path>
                    <path d="M72.8811352,32.7621754 C73.7196733,32.7621754 74.1046225,32.1334035 74.1046225,31.526386 C74.1046225,30.9200702 73.7196733,30.3025263 72.8811352,30.3025263 L71.1594784,30.3025263 L71.1594784,32.7621754 L72.8811352,32.7621754 Z M71.1594784,36.6709474 L69.6416182,36.6709474 L69.6416182,28.8084912 L72.8811352,28.8084912 C74.7613004,28.8084912 75.6224826,30.0884912 75.6224826,31.526386 C75.6224826,32.9530526 74.7613004,34.2562105 72.8811352,34.2562105 L71.1594784,34.2562105 L71.1594784,36.6709474 Z" id="Fill-11" fill="#00AFA9"></path>
                    <path d="M78.6547356,35.3344561 L78.6547356,36.6712982 L77.9301254,36.6712982 C76.8877907,36.6712982 76.4349093,36.1211228 76.4349093,35.1884912 L76.4349093,28.8081404 L77.9301254,28.8081404 L77.9301254,34.8741053 C77.9301254,35.1435789 77.9980576,35.3344561 78.3603627,35.3344561 L78.6547356,35.3344561 Z" id="Fill-12" fill="#00AFA9"></path>
                    <path d="M80.918647,34.8965614 C80.918647,35.1772632 81.1337657,35.4804211 81.8024733,35.4804211 C82.5723716,35.4804211 83.1837614,35.0537544 83.1837614,34.3239298 L83.1837614,34.1323509 C82.3346089,34.1884912 81.5194225,34.2558596 81.235664,34.4018246 C80.9865792,34.5260351 80.918647,34.6488421 80.918647,34.8965614 L80.918647,34.8965614 Z M83.1611174,32.8972632 C83.0592191,32.3807719 82.6855919,32.0544561 82.0742021,32.0544561 C81.5526809,32.0544561 81.1903758,32.3014737 81.0431894,32.6944561 L79.5366513,32.6944561 C79.774414,31.4818246 80.6469182,30.717614 82.0742021,30.717614 C83.7498631,30.717614 84.6789775,31.7737544 84.6789775,33.3800702 L84.6789775,36.6712982 L83.1837614,36.6712982 L83.1837614,36.0081404 C82.9120326,36.4460351 82.4478292,36.7835789 81.5526809,36.7835789 C80.2166809,36.7835789 79.4234309,36.1316491 79.4234309,35.0649825 C79.4234309,34.2228772 79.7178038,33.7169123 80.5336979,33.3351579 C81.1111216,33.0656842 82.2779987,32.9758596 83.1611174,32.9084912 L83.1611174,32.8972632 Z" id="Fill-13" fill="#00AFA9"></path>
                    <path d="M89.1617246,35.3344561 L89.1617246,36.6712982 L87.7231186,36.6712982 C86.6814915,36.6712982 86.2279025,36.1211228 86.2279025,35.1884912 L86.2279025,32.2116491 L85.4013941,32.2116491 L85.4013941,30.8755088 L86.2279025,30.8755088 L86.2279025,29.5604211 L87.7231186,29.5604211 L87.7231186,30.8755088 L89.1617246,30.8755088 L89.1617246,32.2116491 L87.7231186,32.2116491 L87.7231186,34.8741053 C87.7231186,35.1435789 87.7910508,35.3344561 88.1533559,35.3344561 L89.1617246,35.3344561 Z" id="Fill-14" fill="#00AFA9"></path>
                    <path d="M92.3425792,30.1449825 C91.9802742,30.1449825 91.9123419,30.3358596 91.9123419,30.6053333 L91.9123419,30.8755088 L93.3509479,30.8755088 L93.3509479,32.2116491 L91.9123419,32.2116491 L91.9123419,36.6712982 L90.4171258,36.6712982 L90.4171258,32.2116491 L89.5899097,32.2116491 L89.5899097,30.8755088 L90.4171258,30.8755088 L90.4171258,30.2909474 C90.4171258,29.3583158 90.8700072,28.8081404 91.9123419,28.8081404 L93.3509479,28.8081404 L93.3509479,30.1449825 L92.3425792,30.1449825 Z" id="Fill-15" fill="#00AFA9"></path>
                    <path d="M97.4946708,33.1891228 C97.4946708,32.5035088 97.0976919,32.054386 96.3844038,32.054386 C95.6711157,32.054386 95.2748445,32.5035088 95.2748445,33.1891228 L95.2748445,34.3126316 C95.2748445,34.9975439 95.6711157,35.4466667 96.3844038,35.4466667 C97.0976919,35.4466667 97.4946708,34.9975439 97.4946708,34.3126316 L97.4946708,33.1891228 Z M93.7796284,33.38 C93.7796284,31.7736842 94.7080352,30.7182456 96.3844038,30.7182456 C98.0607725,30.7182456 98.9898869,31.7736842 98.9898869,33.38 L98.9898869,34.1217544 C98.9898869,35.7273684 98.0607725,36.7835088 96.3844038,36.7835088 C94.7080352,36.7835088 93.7796284,35.7273684 93.7796284,34.1217544 L93.7796284,33.38 Z" id="Fill-16" fill="#00AFA9"></path>
                    <path d="M101.659906,36.6711579 L100.164689,36.6711579 L100.164689,30.8753684 L101.659906,30.8753684 L101.659906,31.5041404 C101.829736,31.122386 102.327906,30.7743158 103.019257,30.7743158 L103.472139,30.7743158 L103.472139,32.2234386 L102.770172,32.2234386 C102.204071,32.2234386 101.659906,32.5602807 101.659906,33.3462456 L101.659906,36.6711579 Z" id="Fill-17" fill="#00AFA9"></path>
                    <path d="M109.42859,36.6711579 L107.933374,36.6711579 L107.933374,33.2901053 C107.933374,32.5153684 107.389916,32.1672982 106.857073,32.1672982 C106.324937,32.1672982 105.78148,32.5153684 105.78148,33.2901053 L105.78148,36.6711579 L104.286264,36.6711579 L104.286264,30.8753684 L105.78148,30.8753684 L105.78148,31.3581754 C106.064531,30.965193 106.596666,30.7181754 107.106158,30.7181754 C107.718255,30.7181754 108.273035,30.9427368 108.680628,31.4816842 C109.100251,30.9764211 109.700319,30.7181754 110.504891,30.7181754 C111.988077,30.7181754 113.0757,31.5378246 113.0757,33.2339649 L113.0757,36.6711579 L111.580484,36.6711579 L111.580484,33.2901053 C111.580484,32.5153684 111.036319,32.1672982 110.504891,32.1672982 C109.972047,32.1672982 109.42859,32.5153684 109.42859,33.2901053 L109.42859,36.6711579 Z" id="Fill-18" fill="#00AFA9"></path>
                    <polygon id="Fill-19" fill="#323694" points="21.7015085 23.565614 25.0811356 23.565614 25.0811356 5.55929825 21.7015085 5.55929825"></polygon>
                    <path d="M38.5501102,23.5656842 L35.2207246,23.5656842 L35.2207246,16.0365614 C35.2207246,14.2856842 34.0099746,13.5362105 32.7489831,13.5362105 C31.4879915,13.5362105 30.2772415,14.2856842 30.2772415,16.0365614 L30.2772415,23.5656842 L26.9478559,23.5656842 L26.9478559,10.6590175 L30.2772415,10.6590175 L30.2772415,11.7846316 C30.8574958,10.9095439 32.1687288,10.3088421 33.3292373,10.3088421 C35.9778856,10.3088421 38.5501102,12.1102456 38.5501102,15.9116491 L38.5501102,23.5656842 Z" id="Fill-20" fill="#323694"></path>
                    <path d="M46.949078,20.5894035 L46.949078,23.5655439 L43.7463576,23.5655439 C41.4253407,23.5655439 40.416972,22.3402807 40.416972,20.2644912 L40.416972,13.6357193 L40.416972,10.6595789 L40.416972,7.7325614 L43.7463576,7.7325614 L43.7463576,10.6595789 L46.949078,10.6595789 L46.949078,13.6357193 L43.7463576,13.6357193 L43.7463576,19.5641404 C43.7463576,20.1641404 43.8970822,20.5894035 44.7044847,20.5894035 L46.949078,20.5894035 Z" id="Fill-21" fill="#323694"></path>
                    <path d="M51.3378521,15.2364912 L51.3378521,15.2617544 L56.2558606,15.2617544 L56.2558606,15.2364912 C56.1553775,13.8863158 55.2977335,13.0357895 53.8095936,13.0357895 C52.3214538,13.0357895 51.4638097,13.9108772 51.3378521,15.2364912 L51.3378521,15.2364912 Z M51.3378521,17.9880702 L51.3378521,18.0631579 C51.3378521,19.5887719 52.2202631,20.5894737 53.8095936,20.5894737 C54.9693945,20.5894737 55.776797,20.0392982 56.1044284,19.1635088 L59.4847631,19.1635088 C58.9547504,21.8645614 56.9868394,23.565614 53.8095936,23.565614 C50.076153,23.565614 48.0084665,21.2147368 48.0084665,17.6378947 L48.0084665,15.9866667 C48.0084665,12.4105263 50.076153,10.0589474 53.8095936,10.0589474 C57.5423267,10.0589474 59.6107208,12.4105263 59.6107208,15.9866667 L59.6107208,17.9880702 L51.3378521,17.9880702 Z" id="Fill-22" fill="#323694"></path>
                    <path d="M64.8567144,23.5656842 L61.5273288,23.5656842 L61.5273288,10.6590175 L64.8567144,10.6590175 L64.8567144,12.0597193 C65.2352949,11.2098947 66.3448542,10.4344561 67.8832356,10.4344561 L68.8923119,10.4344561 L68.8923119,13.6604211 L67.3284559,13.6604211 C66.0674644,13.6604211 64.8567144,14.4112982 64.8567144,16.1621754 L64.8567144,23.5656842 Z" id="Fill-23" fill="#323694"></path>
                    <path d="M70.4894263,17.7878596 L73.9695364,17.7878596 C74.1719178,19.2636491 75.3317186,20.2390877 77.0215322,20.2390877 C78.509672,20.2390877 79.5442229,19.6889123 79.5442229,18.4882105 C79.5442229,17.5127719 78.9639686,16.9625965 77.7277441,16.6369825 L74.7514644,15.8369825 C72.0532822,15.1113684 70.7165746,13.2355789 70.7165746,10.6594386 C70.7165746,7.15768421 73.4904729,5.55698246 76.5679432,5.55698246 C80.0990025,5.55698246 82.2933542,7.60750877 82.6712271,10.5843509 L79.1911169,10.5843509 C78.8882525,9.40891228 77.6527356,8.88329825 76.5177017,8.88329825 C75.1045703,8.88329825 74.0962017,9.43347368 74.0962017,10.6594386 C74.0962017,11.6847018 74.9028966,12.1352281 75.8617314,12.3850526 L78.7368203,13.1604912 C81.4604771,13.8861053 82.92385,15.5366316 82.92385,18.4882105 C82.92385,21.6397895 80.8554559,23.5654035 77.0215322,23.5654035 C73.1628415,23.5654035 70.6663331,21.2650526 70.4894263,17.7878596" id="Fill-24" fill="#323694"></path>
                    <path d="M90.9902331,24.7162807 C90.2840212,26.6671579 90.0823475,28.0931228 87.7620381,28.0931228 L85.2902966,28.0931228 L85.2902966,25.1162807 L86.6772458,25.1162807 C87.2822669,25.1162807 87.4591737,24.8166316 87.5603644,24.5408421 L87.9389449,23.4903158 L83.2976186,10.5843509 L86.803911,10.5843509 L89.7037669,18.8131228 L92.6043305,10.5843509 L96.1099153,10.5843509 L90.9902331,24.7162807 Z" id="Fill-25" fill="#323694"></path>
                    <path d="M95.8078292,19.1385965 L99.1372148,19.1385965 C99.2879394,20.1392982 100.473922,20.5891228 101.558007,20.5891228 C102.213978,20.5891228 103.197579,20.4396491 103.197579,19.5891228 C103.197579,19.0635088 102.819706,18.7631579 102.037778,18.5884211 L99.313414,17.9877193 C97.9009903,17.662807 96.109986,16.5624561 96.109986,14.0361404 C96.109986,11.5098246 98.4055284,10.0592982 101.078944,10.0592982 C103.726884,10.0592982 105.896469,11.3098246 106.123617,14.2361404 L102.718516,14.2361404 C102.541609,13.4101754 101.81063,13.0354386 100.978461,13.0354386 C100.019626,13.0354386 99.4648462,13.4101754 99.4393716,14.0108772 C99.4393716,14.5610526 99.8936682,14.8361404 100.448448,14.9610526 L103.374486,15.6115789 C104.78691,15.937193 106.526965,16.9126316 106.526965,19.5891228 C106.526965,22.4649123 104.181181,23.5659649 101.457524,23.5659649 C98.7586343,23.5659649 95.9337869,22.1898246 95.8078292,19.1385965" id="Fill-26" fill="#323694"></path>
                    <path d="M118.901382,15.2364912 L118.901382,15.2617544 L123.81939,15.2617544 L123.81939,15.2364912 C123.718907,13.8863158 122.861263,13.0357895 121.373123,13.0357895 C119.884983,13.0357895 119.027339,13.9108772 118.901382,15.2364912 L118.901382,15.2364912 Z M118.901382,17.9880702 L118.901382,18.0631579 C118.901382,19.5887719 119.783793,20.5894737 121.373123,20.5894737 C122.532924,20.5894737 123.340327,20.0392982 123.667958,19.1635088 L127.048293,19.1635088 C126.51828,21.8645614 124.550369,23.565614 121.373123,23.565614 C117.639683,23.565614 115.571996,21.2147368 115.571996,17.6378947 L115.571996,15.9866667 C115.571996,12.4105263 117.639683,10.0589474 121.373123,10.0589474 C125.105856,10.0589474 127.173543,12.4105263 127.173543,15.9866667 L127.173543,17.9880702 L118.901382,17.9880702 Z" id="Fill-27" fill="#323694"></path>
                    <path d="M140.541751,23.5656842 L137.212366,23.5656842 L137.212366,16.0365614 C137.212366,14.3109474 136.001616,13.5362105 134.81634,13.5362105 C133.631065,13.5362105 132.420315,14.3109474 132.420315,16.0365614 L132.420315,23.5656842 L129.090929,23.5656842 L129.090929,10.6590175 L132.420315,10.6590175 L132.420315,11.734807 C133.050811,10.8597193 134.236086,10.3088421 135.37112,10.3088421 C136.733302,10.3088421 137.968819,10.809193 138.876705,12.0098947 C139.810065,10.8842807 141.146772,10.3088421 142.937777,10.3088421 C146.241688,10.3088421 148.663188,12.134807 148.663188,15.9116491 L148.663188,23.5656842 L145.333802,23.5656842 L145.333802,16.0365614 C145.333802,14.3109474 144.12376,13.5362105 142.937777,13.5362105 C141.752501,13.5362105 140.541751,14.3109474 140.541751,16.0365614 L140.541751,23.5656842 Z" id="Fill-28" fill="#323694"></path>
                    <path d="M149.924675,19.1385965 L153.25406,19.1385965 C153.405492,20.1392982 154.590768,20.5891228 155.674853,20.5891228 C156.330823,20.5891228 157.314425,20.4396491 157.314425,19.5891228 C157.314425,19.0635088 156.936552,18.7631579 156.154624,18.5884211 L153.430259,17.9877193 C152.017836,17.662807 150.227539,16.5624561 150.227539,14.0361404 C150.227539,11.5098246 152.522374,10.0592982 155.195789,10.0592982 C157.844437,10.0592982 160.013314,11.3098246 160.240463,14.2361404 L156.835361,14.2361404 C156.658454,13.4101754 155.927475,13.0354386 155.095306,13.0354386 C154.136471,13.0354386 153.581692,13.4101754 153.556217,14.0108772 C153.556217,14.5610526 154.010514,14.8361404 154.565293,14.9610526 L157.491331,15.6115789 C158.903755,15.937193 160.64381,16.9126316 160.64381,19.5891228 C160.64381,22.4649123 158.298026,23.5659649 155.574369,23.5659649 C152.87548,23.5659649 150.050632,22.1898246 149.924675,19.1385965" id="Fill-29" fill="#323694"></path>
                    <path d="M114.162261,20.5894035 L114.162261,23.5655439 L110.958833,23.5655439 C108.638524,23.5655439 107.629448,22.3402807 107.629448,20.2644912 L107.629448,13.6357193 L107.629448,10.6595789 L107.629448,7.7325614 L110.958833,7.7325614 L110.958833,10.6595789 L114.162261,10.6595789 L114.162261,13.6357193 L110.958833,13.6357193 L110.958833,19.5641404 C110.958833,20.1641404 111.110266,20.5894035 111.917668,20.5894035 L114.162261,20.5894035 Z" id="Fill-30" fill="#323694"></path>
                    <polygon id="Fill-31" fill="#323694" points="4.9896911 6.10715789 0.000212288136 3.63136842 0.000212288136 35.0482105 9.97987754 39.9997895 9.97987754 34.4657544 4.9896911 31.9906667"></polygon>
                    <polygon id="Fill-32" fill="#00B4AE" points="9.97966525 34.4658246 14.9691441 36.9437193 14.9691441 5.52617544 4.98947881 0.573894737 4.98947881 6.10722807 9.97966525 8.58231579"></polygon>
                    <polygon id="Fill-33" fill="#2C3694" points="162.496449 11.4364211 161.626775 11.4364211 161.626775 11.1248421 163.743995 11.1248421 163.743995 11.4364211 162.870076 11.4364211 162.870076 13.9613333 162.496449 13.9613333"></polygon>
                    <path d="M166.473738,12.7159298 C166.452509,12.3201404 166.427034,11.8450526 166.43128,11.4913684 L166.418543,11.4913684 C166.32089,11.824 166.202009,12.1769825 166.058361,12.5685614 L165.553115,13.9447018 L165.272894,13.9447018 L164.810106,12.5938246 C164.67495,12.1938246 164.559606,11.8275088 164.479644,11.4913684 L164.470445,11.4913684 C164.462661,11.8450526 164.440725,12.3201404 164.415958,12.7454035 L164.339534,13.9615439 L163.987136,13.9615439 L164.186687,11.1250526 L164.657967,11.1250526 L165.145522,12.4969825 C165.264403,12.8464561 165.362056,13.1573333 165.434233,13.4520702 L165.446971,13.4520702 C165.519149,13.1664561 165.621047,12.8548772 165.74842,12.4969825 L166.257204,11.1250526 L166.728483,11.1250526 L166.906806,13.9615439 L166.545916,13.9615439 L166.473738,12.7159298 Z" id="Fill-34" fill="#2C3694"></path>
                </g>
            </g>
        </g>
    </g>
</svg>